<svg width="328" height="210" viewBox="0 0 328 210" fill="none" xmlns="http://www.w3.org/2000/svg">
<path d="M120.679 105.161C120.679 128.031 128.353 150.24 142.473 168.232C156.592 186.224 176.341 198.957 198.556 204.393C220.771 209.83 244.168 207.654 265 198.216C285.832 188.777 302.895 172.621 313.456 152.335C324.017 132.049 327.465 108.806 323.249 86.3269C319.033 63.8483 307.396 43.4346 290.201 28.3544C273.006 13.2742 251.249 4.39976 228.412 3.15212C205.576 1.90447 182.981 8.35576 164.246 21.473" stroke="#EF91A1" stroke-width="5"/>
<path d="M128.438 105.161C128.438 126.169 135.445 146.576 148.351 163.153C161.256 179.73 179.322 191.528 199.689 196.68C220.055 201.831 241.558 200.043 260.794 191.596C280.029 183.15 295.897 168.529 305.886 150.048C315.875 131.566 319.414 110.281 315.943 89.5621C312.472 68.8429 302.189 49.8735 286.721 35.6573C271.254 21.441 251.487 12.7902 230.549 11.0744C209.611 9.35864 188.699 14.676 171.124 26.1845" stroke="#EF91A1" stroke-width="5"/>
<path d="M136.197 105.161C136.197 124.359 142.573 143.014 154.325 158.196C166.077 173.378 182.539 184.226 201.125 189.038C219.711 193.85 239.368 192.352 257.011 184.78C274.653 177.208 289.281 163.991 298.598 147.204C307.914 130.417 311.39 111.011 308.482 92.0342C305.573 73.057 296.444 55.5834 282.528 42.3574C268.611 29.1313 250.696 20.902 231.596 18.9617C212.495 17.0214 193.291 21.48 177 31.6374" stroke="#EF91A1" stroke-width="5"/>
<path d="M143.956 105.161C143.956 122.56 149.708 139.471 160.318 153.262C170.928 167.052 185.799 176.948 202.617 181.408C219.435 185.869 237.256 184.643 253.306 177.923C269.355 171.203 282.732 159.365 291.355 144.253C299.978 129.14 303.362 111.601 300.98 94.3649C298.599 77.1291 290.586 61.1642 278.189 48.9556C265.792 36.747 249.706 28.9797 232.436 26.863C215.165 24.7463 197.68 28.3989 182.701 37.2522" stroke="#EF91A1" stroke-width="5"/>
<path d="M151.715 105.161C151.715 120.814 156.879 136.031 166.407 148.451C175.935 160.872 189.294 169.802 204.413 173.857C219.533 177.912 235.568 176.866 250.032 170.882C264.497 164.897 276.583 154.307 284.417 140.754C292.251 127.202 295.395 111.443 293.361 95.9221C291.328 80.4009 284.231 65.984 273.171 54.9066C262.11 43.8292 247.704 36.7101 232.186 34.653C216.668 32.5959 200.905 35.7157 187.34 43.5287" stroke="#EF91A1" stroke-width="5"/>
<path d="M159.474 105.161C159.474 119.077 164.055 132.607 172.511 143.66C180.966 154.714 192.825 162.676 206.257 166.318C219.689 169.96 233.946 169.079 246.827 163.81C259.708 158.542 270.496 149.18 277.526 137.169C284.556 125.159 287.436 111.168 285.722 97.357C284.008 83.5463 277.796 70.6839 268.043 60.756C258.291 50.828 245.541 44.3867 231.763 42.4268C217.985 40.4668 203.945 43.0971 191.811 49.9116" stroke="#EF91A1" stroke-width="5"/>
<path d="M167.233 105.161C167.233 117.377 171.256 129.253 178.68 138.954C186.104 148.656 196.516 155.642 208.308 158.835C220.099 162.027 232.614 161.248 243.919 156.617C255.223 151.986 264.688 143.761 270.851 133.214C277.014 122.666 279.532 110.383 278.016 98.261C276.5 86.1392 271.035 74.854 262.464 66.1488C253.894 57.4436 242.695 51.8029 230.599 50.0983C218.502 48.3936 206.181 50.7199 195.538 56.7176" stroke="#EF91A1" stroke-width="5"/>
<path d="M176.285 105.161C176.285 115.425 179.677 125.402 185.934 133.539C192.191 141.676 200.962 147.517 210.882 150.153C220.803 152.789 231.316 152.073 240.787 148.116C250.258 144.159 258.156 137.183 263.252 128.272C268.347 119.362 270.355 109.017 268.964 98.8477C267.572 88.678 262.858 79.2534 255.555 72.0401C248.253 64.8267 238.771 60.229 228.585 58.9623C218.399 57.6955 208.079 59.8307 199.233 65.0356" stroke="#EF91A1" stroke-width="5"/>
<path d="M184.044 105.161C184.044 113.755 186.898 122.106 192.158 128.903C197.417 135.7 204.785 140.558 213.104 142.714C221.423 144.871 230.223 144.204 238.123 140.819C246.022 137.433 252.573 131.52 256.749 124.008C260.924 116.497 262.487 107.811 261.192 99.3148C259.897 90.8187 255.817 82.9931 249.594 77.0663C243.37 71.1395 235.354 67.4471 226.805 66.5686C218.256 65.6902 209.657 67.6754 202.358 72.2127" stroke="#EF91A1" stroke-width="5"/>
<path d="M191.803 105.161C191.803 112.139 194.155 118.913 198.478 124.391C202.802 129.868 208.845 133.728 215.633 135.349C222.42 136.969 229.556 136.254 235.887 133.321C242.219 130.387 247.377 125.405 250.529 119.18C253.681 112.954 254.643 105.848 253.26 99.008C251.876 92.1684 248.228 85.9945 242.905 81.483C237.581 76.9716 230.892 74.3859 223.918 74.1432C216.944 73.9006 210.092 76.0153 204.468 80.1459" stroke="#EF91A1" stroke-width="5"/>
<path d="M199.562 105.161C199.562 110.546 201.43 115.765 204.846 119.927C208.263 124.09 213.017 126.94 218.298 127.99C223.58 129.041 229.063 128.228 233.812 125.689C238.562 123.151 242.284 119.044 244.345 114.068C246.406 109.093 246.678 103.557 245.114 98.4036C243.551 93.2503 240.249 88.7983 235.772 85.8064C231.294 82.8145 225.917 81.4678 220.558 81.9956C215.199 82.5235 210.188 84.8933 206.38 88.7012" stroke="#EF91A1" stroke-width="5"/>
<path d="M207.321 105.161C207.321 103.123 207.723 101.105 208.503 99.2221C209.282 97.3394 210.425 95.6287 211.866 94.1877C213.307 92.7467 215.018 91.6037 216.901 90.8238C218.784 90.044 220.801 89.6426 222.839 89.6426C224.877 89.6426 226.895 90.044 228.778 90.8238C230.661 91.6037 232.371 92.7467 233.812 94.1877C235.253 95.6287 236.396 97.3394 237.176 99.2221C237.956 101.105 238.357 103.123 238.357 105.161C238.357 107.199 237.956 109.216 237.176 111.099C236.396 112.982 235.253 114.693 233.812 116.134C232.371 117.575 230.661 118.718 228.778 119.497C226.895 120.277 224.877 120.679 222.839 120.679C220.801 120.679 218.784 120.277 216.901 119.497C215.018 118.718 213.307 117.575 211.866 116.134C210.425 114.693 209.282 112.982 208.503 111.099C207.723 109.216 207.321 107.198 207.321 105.161L207.321 105.161Z" stroke="#EF91A1" stroke-width="5"/>
<path d="M207.321 105.161C207.321 103.123 207.723 101.105 208.503 99.2221C209.282 97.3394 210.425 95.6287 211.866 94.1877C213.307 92.7467 215.018 91.6037 216.901 90.8238C218.784 90.044 220.801 89.6426 222.839 89.6426C224.877 89.6426 226.895 90.044 228.778 90.8238C230.661 91.6037 232.371 92.7467 233.812 94.1877C235.253 95.6287 236.396 97.3394 237.176 99.2221C237.956 101.105 238.357 103.123 238.357 105.161C238.357 107.199 237.956 109.216 237.176 111.099C236.396 112.982 235.253 114.693 233.812 116.134C232.371 117.575 230.661 118.718 228.778 119.497C226.895 120.277 224.877 120.679 222.839 120.679C220.801 120.679 218.784 120.277 216.901 119.497C215.018 118.718 213.307 117.575 211.866 116.134C210.425 114.693 209.282 112.982 208.503 111.099C207.723 109.216 207.321 107.198 207.321 105.161L207.321 105.161Z" stroke="#EF91A1" stroke-width="5"/>
<path d="M207.321 105.161C207.321 82.2194 199.6 59.9459 185.4 41.9273C171.2 23.9088 151.349 11.194 129.043 5.83088C106.738 0.467732 83.2764 2.76838 62.4376 12.3623C41.5988 21.9562 24.5956 38.2849 14.1665 58.7186C3.73746 79.1522 0.489589 102.501 4.946 125.006C9.4024 147.51 21.3037 167.859 38.7331 182.776C56.1624 197.693 78.1054 206.31 101.028 207.238C123.95 208.166 146.518 201.351 165.096 187.892" stroke="#EF91A1" stroke-width="5"/>
<path d="M199.562 105.161C199.562 84.1283 192.539 63.6982 179.606 47.1121C166.673 30.526 148.571 18.7339 128.173 13.6069C107.775 8.47979 86.2493 10.3114 67.0109 18.8111C47.7724 27.3108 31.9234 41.9918 21.9786 60.5245C12.0339 79.0573 8.56286 100.38 12.1164 121.11C15.67 141.84 26.0445 160.79 41.594 174.953C57.1434 189.115 76.9771 197.679 97.948 199.286C118.919 200.893 139.826 195.451 157.352 183.823" stroke="#EF91A1" stroke-width="5"/>
<path d="M191.803 105.161C191.803 85.9268 185.403 67.2398 173.612 52.0442C161.821 36.8487 145.308 26.0086 126.677 21.2322C108.046 16.4558 88.3545 18.0146 70.7068 25.6631C53.0591 33.3115 38.458 46.6147 29.2044 63.4762C19.9509 80.3378 16.571 99.7991 19.5973 118.793C22.6236 137.788 31.8841 155.235 45.9195 168.386C59.9549 181.537 77.9673 189.644 97.1181 191.429C116.269 193.215 135.469 188.577 151.694 178.247" stroke="#EF91A1" stroke-width="5"/>
<path d="M184.044 105.161C184.044 87.7628 178.293 70.8529 167.685 57.0632C157.077 43.2734 142.208 33.3774 125.392 28.9155C108.576 24.4535 90.7564 25.676 74.7073 32.3926C58.6582 39.1092 45.2797 50.9431 36.6543 66.0523C28.0289 81.1615 24.6404 98.6984 27.0164 115.933C29.3923 133.168 37.3993 149.134 49.791 161.346C62.1828 173.558 78.2641 181.331 95.5319 183.454C112.8 185.578 130.285 181.933 145.267 173.088" stroke="#EF91A1" stroke-width="5"/>
<path d="M176.285 105.161C176.285 89.4862 171.107 74.2508 161.556 61.8223C152.005 49.3938 138.616 40.4684 123.47 36.4333C108.324 32.3982 92.2693 33.4794 77.801 39.509C63.3326 45.5385 51.2613 56.1786 43.4631 69.7755C35.6649 83.3724 32.5767 99.1645 34.6784 114.697C36.7801 130.23 43.954 144.634 55.0852 155.669C66.2163 166.705 80.6812 173.755 96.2316 175.722C111.782 177.69 127.547 174.466 141.076 166.551" stroke="#EF91A1" stroke-width="5"/>
<path d="M167.233 105.161C167.233 91.2 162.67 77.6301 154.252 66.559C145.834 55.4879 134.033 47.5353 120.682 43.9366C107.33 40.3379 93.1765 41.2946 80.4188 46.658C67.661 52.0215 57.0135 61.4914 50.1304 73.5968C43.2472 85.7021 40.5136 99.7652 42.3543 113.601C44.1951 127.438 50.507 140.272 60.3096 150.112C70.1122 159.952 82.8568 166.245 96.5635 168.015C110.27 169.785 124.172 166.932 136.109 159.899" stroke="#EF91A1" stroke-width="5"/>
<path d="M159.474 105.161C159.474 92.8955 155.466 80.9745 148.074 71.2534C140.682 61.5323 130.321 54.5567 118.603 51.4124C106.886 48.2682 94.4697 49.1318 83.2878 53.8688C72.1058 58.6057 62.7856 66.9503 56.7779 77.6033C50.7703 88.2564 48.4123 100.62 50.0712 112.77C51.7301 124.92 57.3127 136.174 65.9499 144.78C74.5872 153.386 85.7944 158.862 97.8269 160.354C109.859 161.846 122.042 159.272 132.478 153.031" stroke="#EF91A1" stroke-width="5"/>
<path d="M151.715 105.161C151.715 94.9027 148.327 84.9319 142.077 76.7976C135.828 68.6632 127.066 62.8208 117.155 60.178C107.243 57.5352 96.7357 58.2401 87.2659 62.1831C77.796 66.1261 69.8936 73.0865 64.7864 81.9827C59.6793 90.879 57.6534 101.213 59.0236 111.379C60.3938 121.545 65.0833 130.974 72.3635 138.201C79.6436 145.427 89.1068 150.047 99.2827 151.342C109.459 152.637 119.777 150.535 128.636 145.363" stroke="#EF91A1" stroke-width="5"/>
<path d="M143.956 105.161C143.956 96.5519 141.092 88.1877 135.816 81.3851C130.54 74.5824 123.152 69.7278 114.814 67.5857C106.476 65.4436 97.6622 66.1356 89.7607 69.5529C81.8593 72.9701 75.3188 78.9184 71.1694 86.4611C67.0199 94.0038 65.497 102.712 66.8407 111.216C68.1843 119.719 72.318 127.534 78.591 133.43C84.8639 139.325 92.9197 142.967 101.49 143.782C110.06 144.596 118.658 142.537 125.929 137.929" stroke="#EF91A1" stroke-width="5"/>
<path d="M136.197 105.161C136.197 98.1317 133.811 91.3108 129.429 85.8145C125.048 80.3182 118.93 76.4719 112.078 74.9053C105.226 73.3386 98.045 74.1443 91.7104 77.1905C85.3757 80.2366 80.2627 85.3429 77.2082 91.6735C74.1537 98.0041 73.3385 105.184 74.8962 112.038C76.4538 118.893 80.292 125.015 85.7825 129.404C91.273 133.793 98.0907 136.188 105.12 136.197C112.149 136.206 118.973 133.829 124.475 129.455" stroke="#EF91A1" stroke-width="5"/>
<path d="M128.438 105.161C128.438 99.7516 126.554 94.5113 123.11 90.3403C119.666 86.1693 114.877 83.3278 109.565 82.3042C104.254 81.2805 98.7521 82.1386 94.0047 84.7309C89.2573 87.3233 85.5609 91.488 83.5506 96.5097C81.5403 101.531 81.3416 107.096 82.9887 112.249C84.6358 117.401 88.0257 121.819 92.5762 124.743C97.1267 127.667 102.554 128.915 107.924 128.273C113.295 127.631 118.275 125.138 122.007 121.223" stroke="#EF91A1" stroke-width="5"/>
<path d="M120.679 105.161C120.679 101.065 119.059 97.1348 116.174 94.2279C113.288 91.321 109.37 89.6729 105.274 89.643C101.178 89.6131 97.2366 91.2037 94.3087 94.068C91.3808 96.9324 89.7041 100.838 89.6442 104.934C89.5843 109.029 91.1461 112.982 93.989 115.931C96.8319 118.88 100.725 120.585 104.82 120.675C108.915 120.765 112.88 119.232 115.849 116.411C118.819 113.589 120.552 109.709 120.672 105.614" stroke="#EF91A1" stroke-width="5"/>
</svg>
